<svg version="1.1" id="Layer_1" xmlns="http://www.w3.org/2000/svg" xmlns:xlink="http://www.w3.org/1999/xlink" x="0px" y="0px"
	 width="100%" viewBox="0 0 500 500" enable-background="new 0 0 500 500" xml:space="preserve">
<path fill="#000000" opacity="1.000000" stroke="none" 
	d="
M501.000000,177.000000 
	C501.000000,285.333313 501.000000,393.166595 501.000000,500.999939 
	C334.333405,500.999939 167.666794,500.999939 1.000147,500.999969 
	C1.000098,334.333435 1.000098,167.666870 1.000049,1.000237 
	C167.666519,1.000158 334.333038,1.000158 500.999786,1.000079 
	C501.000000,59.500000 501.000000,118.000000 501.000000,177.000000 
M107.004997,56.493153 
	C97.537476,64.628044 87.838310,72.513176 78.692787,80.995239 
	C73.536736,85.777245 69.277168,91.529106 64.641121,96.867851 
	C54.130623,108.971443 45.441181,122.304199 37.906288,136.424896 
	C29.325953,152.504791 22.354202,169.227524 17.601711,186.842804 
	C12.739743,204.863876 9.727969,223.206299 9.064692,241.850388 
	C8.384390,260.973053 10.207345,279.878387 13.862211,298.730865 
	C19.883463,329.789612 31.913622,358.282715 49.193523,384.545898 
	C62.331375,404.513733 77.967674,422.344299 96.746048,437.420532 
	C109.369804,447.555603 122.525497,456.747772 136.798569,464.325958 
	C152.739197,472.789520 169.324036,479.689728 186.792587,484.379181 
	C204.820602,489.218811 223.149414,492.278259 241.794037,492.935394 
	C260.916199,493.609344 279.819366,491.787994 298.675568,488.144012 
	C329.742889,482.140167 358.226074,470.094635 384.505310,452.845612 
	C404.489502,439.728394 422.204254,423.954956 437.367279,405.289215 
	C447.889771,392.336090 457.227539,378.694366 464.993530,363.959290 
	C473.257812,348.278778 480.538849,332.061798 484.388733,314.784607 
	C488.170013,297.815399 491.317627,280.545685 492.706299,263.244385 
	C494.313080,243.225555 492.041656,223.243210 488.170563,203.380066 
	C482.116455,172.315308 470.093323,143.835342 452.882812,117.541283 
	C439.791443,97.540367 423.983673,79.845558 405.326477,64.682518 
	C392.253601,54.057953 378.461609,44.692329 363.562286,36.858471 
	C348.001984,28.677048 331.844330,21.982813 314.867920,17.492411 
	C296.360901,12.597153 277.517761,9.509704 258.329376,9.016356 
	C241.500000,8.583659 224.836578,9.947553 208.222641,12.898220 
	C186.672638,16.725542 165.889465,22.876911 146.535446,33.019680 
	C133.188477,40.014359 120.508965,48.282681 107.004997,56.493153 
z"/>
<path fill="#9437FF" opacity="1.000000" stroke="none" 
	d="
M107.268082,56.237473 
	C120.508965,48.282681 133.188477,40.014359 146.535446,33.019680 
	C165.889465,22.876911 186.672638,16.725542 208.222641,12.898220 
	C224.836578,9.947553 241.500000,8.583659 258.329376,9.016356 
	C277.517761,9.509704 296.360901,12.597153 314.867920,17.492411 
	C331.844330,21.982813 348.001984,28.677048 363.562286,36.858471 
	C378.461609,44.692329 392.253601,54.057953 405.326477,64.682518 
	C423.983673,79.845558 439.791443,97.540367 452.882812,117.541283 
	C470.093323,143.835342 482.116455,172.315308 488.170563,203.380066 
	C492.041656,223.243210 494.313080,243.225555 492.706299,263.244385 
	C491.317627,280.545685 488.170013,297.815399 484.388733,314.784607 
	C480.538849,332.061798 473.257812,348.278778 464.993530,363.959290 
	C457.227539,378.694366 447.889771,392.336090 437.367279,405.289215 
	C422.204254,423.954956 404.489502,439.728394 384.505310,452.845612 
	C358.226074,470.094635 329.742889,482.140167 298.675568,488.144012 
	C279.819366,491.787994 260.916199,493.609344 241.794037,492.935394 
	C223.149414,492.278259 204.820602,489.218811 186.792587,484.379181 
	C169.324036,479.689728 152.739197,472.789520 136.798569,464.325958 
	C122.525497,456.747772 109.369804,447.555603 96.746048,437.420532 
	C77.967674,422.344299 62.331375,404.513733 49.193523,384.545898 
	C31.913622,358.282715 19.883463,329.789612 13.862211,298.730865 
	C10.207345,279.878387 8.384390,260.973053 9.064692,241.850388 
	C9.727969,223.206299 12.739743,204.863876 17.601711,186.842804 
	C22.354202,169.227524 29.325953,152.504791 37.906288,136.424896 
	C45.441181,122.304199 54.130623,108.971443 64.641121,96.867851 
	C69.277168,91.529106 73.536736,85.777245 78.692787,80.995239 
	C87.838310,72.513176 97.537476,64.628044 107.268082,56.237473 
M54.484524,330.947479 
	C92.608612,423.279266 188.165771,476.679871 285.802002,460.215607 
	C400.444733,440.883514 478.143188,333.885101 460.816376,219.203735 
	C446.234741,122.692078 367.737793,48.461163 270.085632,39.913864 
	C205.727585,34.280731 148.743591,53.401203 103.384254,99.249107 
	C38.264729,165.070023 22.987162,243.103607 54.484524,330.947479 
z"/>
<path fill="#FFFFFF" opacity="1.000000" stroke="none" 
	d="
M54.328255,330.595520 
	C22.987162,243.103607 38.264729,165.070023 103.384254,99.249107 
	C148.743591,53.401203 205.727585,34.280731 270.085632,39.913864 
	C367.737793,48.461163 446.234741,122.692078 460.816376,219.203735 
	C478.143188,333.885101 400.444733,440.883514 285.802002,460.215607 
	C188.165771,476.679871 92.608612,423.279266 54.328255,330.595520 
M328.007050,96.709297 
	C328.065460,97.178825 328.123871,97.648361 328.086212,98.092087 
	C328.086212,98.092087 328.022400,98.015739 327.281403,98.038612 
	C323.419220,98.831146 321.771729,101.229774 322.163788,105.765724 
	C322.150208,112.316544 317.075806,116.085884 313.756195,120.764374 
	C311.167633,124.412598 308.055359,127.689209 305.145508,131.148544 
	C305.145508,131.148544 305.125977,131.177704 304.512451,131.188324 
	C304.011414,131.503555 303.510345,131.818771 302.417877,132.221664 
	C302.021698,132.265366 301.625519,132.309067 300.414886,132.174255 
	C296.160431,131.237549 294.619232,134.312469 292.277557,137.260406 
	C291.593719,137.305466 290.909882,137.350540 289.494598,137.187683 
	C288.993530,137.134018 288.492462,137.080353 287.468506,136.687775 
	C283.504333,136.604141 280.467072,138.168503 280.299164,142.363358 
	C280.144226,146.233444 285.801697,151.255936 290.937927,151.827316 
	C291.753632,151.646729 292.569336,151.466156 293.854309,151.306244 
	C294.166290,151.332703 294.477722,151.364639 295.368469,151.935349 
	C298.894592,153.977066 302.420746,156.018784 306.128113,158.726639 
	C309.722870,162.166702 313.317657,165.606781 317.082947,169.732666 
	C318.662476,172.023849 320.526276,174.172760 321.759674,176.637161 
	C324.016296,181.146011 325.663177,185.969498 328.055756,190.396179 
	C329.020630,192.181412 331.277466,193.268356 332.946289,194.673111 
	C334.174164,192.375244 335.402008,190.077362 336.714294,187.176819 
	C336.805817,186.781860 336.897339,186.386917 337.610260,185.695557 
	C340.504944,183.427551 342.920013,180.942123 341.710205,176.162476 
	C341.776184,175.750290 341.842163,175.338120 342.516205,174.642685 
	C344.376923,172.449524 346.237640,170.256363 348.807800,167.982803 
	C350.225220,166.342331 351.642639,164.701859 353.783783,162.990906 
	C357.671509,160.669830 361.665802,158.503296 365.385620,155.938705 
	C366.588654,155.109299 367.071320,153.235107 367.804047,151.745163 
	C367.804047,151.745163 367.824310,151.624023 368.661346,151.821732 
	C373.348511,152.015244 377.780029,151.078827 380.348694,146.873978 
	C381.494507,144.998276 381.985168,142.062317 381.386810,140.012253 
	C380.985016,138.635803 378.206635,137.843536 376.387878,137.018494 
	C374.207031,136.029205 371.941986,135.204163 369.666260,134.450439 
	C366.389343,133.365112 363.069885,132.408203 359.325623,131.261230 
	C359.325623,131.261230 358.896912,131.085861 358.914001,130.334290 
	C357.566803,129.283081 356.219574,128.231888 354.944275,127.134369 
	C354.944275,127.134369 354.859375,127.144073 354.620941,126.506767 
	C352.045807,124.035423 349.470703,121.564079 346.920288,119.013557 
	C346.920288,119.013557 346.877991,119.092323 346.928558,118.367790 
	C345.568146,116.959068 344.207733,115.550346 342.692047,113.698502 
	C342.692047,113.698502 342.598663,113.238342 342.695496,112.428177 
	C341.285614,108.660583 339.871063,104.894730 338.468323,101.124481 
	C337.959961,99.758110 337.479950,98.381195 337.000336,96.292747 
	C336.811737,93.963898 336.719635,91.526802 332.465424,92.925842 
	C331.305176,93.279350 330.144928,93.632866 328.498383,94.111687 
	C328.330719,94.741081 328.163025,95.370483 328.007050,96.709297 
M181.325836,286.667267 
	C181.325836,286.667267 181.337097,286.767151 181.293289,287.513245 
	C181.963989,290.727722 183.333817,293.145111 187.293350,292.722748 
	C187.293350,292.722748 187.291138,292.807159 187.146957,293.587891 
	C187.272217,294.558502 187.072968,295.759705 187.573242,296.463898 
	C192.260300,303.061249 197.735413,309.142975 199.637039,317.423096 
	C199.898682,318.562317 202.457794,319.173859 204.350601,320.595764 
	C204.547455,321.735413 204.744293,322.875031 204.522125,324.645660 
	C202.221863,331.737762 208.787979,335.502380 210.786575,341.664703 
	C210.807648,342.096436 210.828720,342.528137 210.486725,343.544220 
	C208.931244,348.257385 213.567673,348.737305 215.714554,350.669708 
	C216.958740,351.789612 220.491226,352.506287 221.071640,351.807556 
	C222.575012,349.997864 223.012955,347.303101 223.940872,344.210175 
	C224.082428,343.468201 224.223999,342.726227 224.930084,341.664093 
	C230.045166,338.062164 231.777084,333.233398 229.937637,327.298462 
	C230.213089,326.475983 230.488541,325.653503 231.505188,324.784821 
	C235.356445,323.446106 236.062820,320.414581 235.833099,316.237335 
	C235.833038,315.826965 235.832977,315.416626 236.353958,314.566650 
	C240.794083,307.996582 244.891449,301.159149 249.757339,294.921204 
	C256.493134,286.286041 264.955292,279.550537 274.652679,274.319763 
	C276.505463,273.320343 277.608795,270.931519 279.683990,269.038544 
	C280.107239,268.973114 280.530518,268.907684 281.511261,269.320557 
	C283.209991,269.140381 285.451874,269.585541 286.509308,268.667053 
	C290.222961,265.441376 294.315552,263.928497 299.185577,263.915955 
	C302.350586,263.907776 304.044098,262.115723 304.358765,258.515289 
	C304.923401,258.411591 305.488037,258.307892 306.699219,258.571655 
	C309.427765,258.232361 312.607391,258.636993 314.752930,257.336121 
	C316.740204,256.131165 318.718719,253.083618 318.681366,250.881699 
	C318.643982,248.677887 316.569000,245.609177 314.542206,244.574142 
	C312.192017,243.373993 308.921265,243.976410 305.471985,243.772095 
	C304.936890,243.574707 304.401825,243.377319 303.895294,242.388885 
	C302.216675,240.933380 300.750305,238.982117 298.805084,238.149307 
	C296.436157,237.135086 293.412018,237.585403 291.116211,236.479065 
	C285.308563,233.680389 279.682159,230.481155 274.106934,227.230148 
	C265.392334,222.148529 257.149384,216.397598 251.107315,208.131119 
	C247.419922,203.086197 243.573029,198.243088 240.527847,192.605362 
	C236.354767,184.879471 232.569397,177.244110 230.254822,168.725204 
	C228.777222,163.286789 226.126617,158.112320 223.567444,153.038666 
	C221.226852,148.398331 219.610672,148.654007 214.993530,151.632858 
	C211.387268,153.959518 209.794357,156.768295 209.447495,160.872940 
	C209.273712,162.929367 208.736191,165.433456 207.408279,166.821564 
	C203.852921,170.538055 203.613998,174.742966 204.335342,180.006805 
	C204.208618,180.662781 204.081909,181.318756 203.219406,182.029373 
	C201.568924,184.039749 199.730499,185.930466 198.343552,188.108658 
	C197.598862,189.278168 198.046677,191.252869 197.241867,192.330704 
	C192.604904,198.540649 187.690491,204.543030 183.030640,210.736557 
	C182.106339,211.965088 181.881119,213.719559 181.323563,215.329636 
	C181.323563,215.329636 181.226532,215.347321 180.457306,215.219742 
	C176.681885,215.299515 175.996750,217.851685 175.518967,221.279816 
	C174.997757,221.468338 174.476547,221.656860 173.427628,221.496994 
	C168.927704,223.944901 164.372375,226.300659 159.985947,228.937378 
	C159.306854,229.345596 159.401474,231.040955 159.173019,232.239868 
	C159.173019,232.239868 159.155975,232.343201 158.327255,232.185349 
	C156.070511,232.608215 153.458206,232.442612 151.617874,233.554626 
	C143.128479,238.684311 133.589172,240.959320 124.331017,243.927856 
	C120.281288,245.226364 119.992035,247.844147 119.961166,251.172272 
	C119.928978,254.642273 120.641693,257.059326 124.677727,258.127045 
	C132.076080,260.084259 139.315475,262.648438 146.597046,265.033142 
	C147.505051,265.330505 148.200302,266.275055 149.108093,266.575806 
	C152.431824,267.676941 155.803711,268.632660 159.179642,269.748444 
	C159.179642,269.748444 159.148132,269.851349 159.115570,270.624329 
	C159.555832,274.445190 161.989838,275.262543 165.880173,274.787384 
	C166.251236,274.862915 166.622314,274.938416 167.123566,275.686523 
	C168.860107,278.005310 169.716293,281.689392 174.518188,280.232117 
	C174.987717,280.521545 175.457230,280.811005 175.952347,281.853271 
	C176.198578,285.114777 177.521545,287.192169 181.325836,286.667267 
M302.932129,371.171631 
	C304.344666,372.682068 305.740265,374.208801 307.173279,375.699585 
	C310.249420,378.899811 314.008209,381.671082 316.289886,385.358978 
	C320.609863,392.341217 323.930664,399.935211 328.043060,407.057678 
	C328.882355,408.511383 331.312988,409.521759 333.136139,409.756165 
	C334.256622,409.900269 335.973907,408.436676 336.809631,407.259369 
	C341.516937,400.628204 341.805267,391.914307 347.620544,385.583191 
	C353.179688,379.530914 357.516510,372.324188 366.414490,370.511536 
	C367.493195,370.291779 368.420166,369.385284 369.451904,368.865356 
	C371.579712,367.793091 373.663300,366.582367 375.889252,365.768005 
	C378.748932,364.721802 382.846863,365.030396 382.751434,360.665894 
	C382.658569,356.419769 381.490295,351.507996 376.744293,350.802490 
	C371.202698,349.978760 366.691071,347.856567 361.901306,345.177734 
	C353.588196,340.528320 348.396515,333.139282 343.432861,325.715851 
	C340.174316,320.842468 338.785919,314.731201 336.461761,309.215698 
	C335.070221,305.913544 332.045166,304.614929 329.811005,307.260712 
	C326.667786,310.983063 322.912048,315.533295 322.585449,319.963013 
	C322.134064,326.084900 318.353027,329.873749 315.243378,333.400909 
	C307.941040,341.683716 300.009521,349.850769 287.707489,350.748718 
	C285.098328,350.939209 279.966034,358.080444 280.420532,360.537445 
	C281.186218,364.676727 284.914368,364.898926 288.106903,365.719055 
	C289.977509,366.199646 292.798523,366.154938 293.516541,367.351715 
	C295.657898,370.921021 298.756378,371.035889 302.932129,371.171631 
z"/>
<path fill="#C795FF" opacity="1.000000" stroke="none" 
	d="
M173.955353,221.845398 
	C174.476547,221.656860 174.997757,221.468338 176.026413,220.959991 
	C178.098083,218.875885 179.662308,217.111603 181.226532,215.347321 
	C181.226532,215.347321 181.323563,215.329636 181.634369,215.175659 
	C187.371872,208.481491 193.183472,202.213425 198.074753,195.294708 
	C200.820831,191.410339 202.045227,186.450195 203.955200,181.974731 
	C204.081909,181.318756 204.208618,180.662781 204.609222,179.465393 
	C207.269241,172.619247 209.273010,166.126953 212.228378,160.101425 
	C213.422455,157.666901 216.534790,155.931366 219.146530,154.618515 
	C219.737183,154.321609 222.560257,156.848450 223.197372,158.517609 
	C228.242920,171.736084 231.904099,185.563446 239.973206,197.440735 
	C244.230331,203.707001 248.412018,210.202408 253.667252,215.578186 
	C267.535339,229.764404 285.185425,237.512360 303.866730,243.179932 
	C304.401825,243.377319 304.936890,243.574707 306.028717,244.042740 
	C307.365967,244.564972 308.129730,244.914185 308.929871,245.051239 
	C312.367218,245.640045 314.104706,247.419479 314.062164,251.123260 
	C314.022247,254.596085 312.361053,256.238373 309.181519,256.920502 
	C308.096680,257.153229 307.093292,257.765411 306.052673,258.204193 
	C305.488037,258.307892 304.923401,258.411591 303.747803,258.698639 
	C299.650879,260.196686 296.167542,261.518250 292.678253,262.823944 
	C289.797455,263.901978 286.909637,264.961273 283.734406,266.097900 
	C282.915588,266.716797 282.387329,267.266693 281.675690,267.957764 
	C281.258850,268.307587 281.079346,268.555359 280.953766,268.842255 
	C280.530518,268.907684 280.107239,268.973114 279.091736,268.957886 
	C276.846130,269.447510 274.949036,269.676849 273.585144,270.651947 
	C269.501221,273.571686 265.818878,277.078217 261.628510,279.818542 
	C253.159897,285.356628 246.854538,292.888885 241.488007,301.210663 
	C238.724503,305.495972 236.886765,310.378265 234.383850,315.103882 
	C233.816895,315.857666 233.496796,316.498352 233.056274,317.484467 
	C232.211899,320.163574 231.487961,322.497314 230.764008,324.831024 
	C230.488541,325.653503 230.213089,326.475983 229.575867,327.759918 
	C227.150925,332.148956 225.087753,336.076538 222.786682,339.913666 
	C222.123215,339.554047 221.697662,339.284912 221.295349,338.727478 
	C221.317184,338.053772 221.315765,337.668396 221.589706,337.082306 
	C229.163132,322.722046 233.119858,306.906647 243.160889,293.880463 
	C243.239639,293.693573 243.323502,293.296722 243.597473,293.132507 
	C245.009399,291.402924 246.147339,289.837555 247.493469,288.254944 
	C247.701645,288.237701 248.103683,288.124084 248.414993,288.015076 
	C250.518204,285.977600 252.310104,284.049164 254.068817,282.076050 
	C254.035614,282.031372 254.121414,282.102417 254.426758,281.993774 
	C255.922592,280.355591 257.113098,278.826111 258.582397,277.241730 
	C259.330780,276.882080 259.800415,276.577332 260.584839,276.145447 
	C269.925171,270.976257 278.950745,265.934174 288.292542,260.867432 
	C289.028412,260.790955 289.448120,260.739105 290.246735,260.749756 
	C295.723907,258.964630 300.902252,257.303253 305.874969,255.163940 
	C307.514557,254.458588 309.889801,252.275101 309.683136,251.198730 
	C309.356873,249.499619 307.391205,247.659561 305.661346,246.780212 
	C302.008026,244.922989 298.090485,243.557831 294.212158,242.186386 
	C292.916412,241.728180 291.410187,241.865219 289.716980,241.701996 
	C289.054626,241.671005 288.675446,241.668182 288.094055,241.391876 
	C278.689758,235.983826 269.487579,230.849274 260.144592,225.520844 
	C259.789703,225.083374 259.536957,224.890503 259.088867,224.468155 
	C257.328217,222.758102 255.724167,221.328262 254.076431,219.933197 
	C254.032730,219.967957 254.101425,219.879929 253.988708,219.573212 
	C251.951538,217.469742 250.027069,215.672989 247.901733,213.819336 
	C247.700851,213.762436 247.284790,213.727219 247.159988,213.425400 
	C245.803528,211.646591 244.571869,210.169601 243.299011,208.492447 
	C243.257828,208.292267 243.097809,207.916153 243.010437,207.583588 
	C240.741364,203.794769 238.301239,200.471664 236.436478,196.852112 
	C233.386063,190.931198 230.705322,184.819595 227.877777,178.784119 
	C225.682632,174.098465 223.501480,169.406250 221.324112,164.422287 
	C221.307541,163.735565 221.280945,163.343506 221.402557,162.676971 
	C221.234970,160.794678 220.919174,159.186844 220.461731,156.857895 
	C216.915710,159.755096 212.407761,160.669403 213.751373,166.261353 
	C213.714630,166.942108 213.704727,167.331680 213.414993,167.923309 
	C207.715759,179.714844 202.296356,191.304321 196.813629,203.097595 
	C196.750320,203.301376 196.704453,203.725677 196.426834,203.895142 
	C192.501282,208.104294 189.200974,212.542328 185.128723,216.095718 
	C177.967682,222.344406 170.524155,228.314178 162.825012,233.883881 
	C158.503113,237.010452 153.431671,239.100922 148.412949,241.637146 
	C147.747696,241.634247 147.367432,241.652374 146.700562,241.562881 
	C140.985352,243.211334 135.483261,244.777832 130.171936,246.836548 
	C128.533768,247.471527 126.163773,249.661499 126.350739,250.761993 
	C126.637268,252.448425 128.577347,254.404968 130.297485,255.187164 
	C134.442032,257.071869 138.847916,258.396973 143.189056,259.824097 
	C144.382523,260.216461 145.719269,260.172943 147.274414,260.354187 
	C147.938339,260.366516 148.318130,260.354095 148.889297,260.613831 
	C151.888489,262.590332 154.525452,264.725616 157.535843,265.918915 
	C166.892960,269.628021 174.658569,275.624573 181.791306,282.450684 
	C187.020752,287.455322 191.751480,292.981079 196.727448,298.486755 
	C196.750427,298.698883 196.877106,299.106415 196.961136,299.442902 
	C200.592209,307.341553 204.097382,314.923737 207.703339,322.457703 
	C209.610031,326.441406 211.692123,330.341156 213.691895,334.568176 
	C213.715317,335.242432 213.741898,335.627319 213.549057,336.194885 
	C213.037262,336.622955 212.744888,336.868378 212.111221,337.074249 
	C209.493668,332.694672 207.217422,328.354675 204.941162,324.014679 
	C204.744293,322.875031 204.547455,321.735413 204.154297,319.937958 
	C199.621460,309.688293 195.456955,299.988159 187.291138,292.807159 
	C187.291138,292.807159 187.293350,292.722748 187.150848,292.407410 
	C185.117950,290.317078 183.227524,288.542114 181.337097,286.767151 
	C181.337097,286.767151 181.325836,286.667267 181.169708,286.362793 
	C179.317963,284.405731 177.622360,282.753082 175.926743,281.100464 
	C175.457230,280.811005 174.987717,280.521545 174.118561,279.861115 
	C171.477081,277.998047 169.235245,276.505981 166.993393,275.013916 
	C166.622314,274.938416 166.251236,274.862915 165.514099,274.421875 
	C163.148071,272.654724 161.148102,271.253021 159.148132,269.851349 
	C159.148132,269.851349 159.179642,269.748444 159.006622,269.418640 
	C148.603195,264.906342 138.420670,260.599762 128.110931,256.623016 
	C125.304855,255.540634 122.952103,254.982452 122.887749,251.176956 
	C122.819862,247.162140 125.124176,246.299591 128.265091,245.349747 
	C135.238113,243.241074 142.199707,241.012909 148.961121,238.319290 
	C152.578827,236.878067 155.771500,234.369873 159.155975,232.343201 
	C159.155975,232.343201 159.173019,232.239868 159.519135,232.179108 
	C164.870667,229.117477 170.830322,227.425385 173.955353,221.845398 
z"/>
<path fill="#E8D4FF" opacity="1.000000" stroke="none" 
	d="
M302.533173,371.112762 
	C298.756378,371.035889 295.657898,370.921021 293.516541,367.351715 
	C292.798523,366.154938 289.977509,366.199646 288.106903,365.719055 
	C284.914368,364.898926 281.186218,364.676727 280.420532,360.537445 
	C279.966034,358.080444 285.098328,350.939209 287.707489,350.748718 
	C300.009521,349.850769 307.941040,341.683716 315.243378,333.400909 
	C318.353027,329.873749 322.134064,326.084900 322.585449,319.963013 
	C322.912048,315.533295 326.667786,310.983063 329.811005,307.260712 
	C332.045166,304.614929 335.070221,305.913544 336.461761,309.215698 
	C338.785919,314.731201 340.174316,320.842468 343.432861,325.715851 
	C348.396515,333.139282 353.588196,340.528320 361.901306,345.177734 
	C366.691071,347.856567 371.202698,349.978760 376.744293,350.802490 
	C381.490295,351.507996 382.658569,356.419769 382.751434,360.665894 
	C382.846863,365.030396 378.748932,364.721802 375.889252,365.768005 
	C373.663300,366.582367 371.579712,367.793091 369.451904,368.865356 
	C368.420166,369.385284 367.493195,370.291779 366.414490,370.511536 
	C357.516510,372.324188 353.179688,379.530914 347.620544,385.583191 
	C341.805267,391.914307 341.516937,400.628204 336.809631,407.259369 
	C335.973907,408.436676 334.256622,409.900269 333.136139,409.756165 
	C331.312988,409.521759 328.882355,408.511383 328.043060,407.057678 
	C323.930664,399.935211 320.609863,392.341217 316.289886,385.358978 
	C314.008209,381.671082 310.249420,378.899811 307.173279,375.699585 
	C305.740265,374.208801 304.344666,372.682068 302.533173,371.112762 
M307.590820,346.155762 
	C302.533661,348.571594 297.431580,350.899658 292.443787,353.451111 
	C290.707855,354.339081 289.071991,355.602570 287.711395,357.005737 
	C285.147339,359.650024 285.675140,361.713562 289.305267,362.799377 
	C292.008759,363.608093 294.926361,364.023590 297.368195,365.326904 
	C306.481171,370.191101 315.408264,375.430084 320.540741,384.976196 
	C323.584198,390.636902 326.289978,396.478516 329.288910,402.164276 
	C330.011230,403.533722 331.294220,404.607483 332.319397,405.817261 
	C333.375092,404.500244 334.701538,403.318390 335.438416,401.842224 
	C338.240997,396.227905 340.354797,390.209839 343.638336,384.907684 
	C350.867798,373.233978 361.696899,366.247620 374.884949,362.736389 
	C376.222076,362.380371 377.407684,361.455292 379.861755,360.163696 
	C376.642944,357.498352 374.407104,355.050140 371.662933,353.504333 
	C366.639923,350.674744 360.596405,349.239685 356.297546,345.645386 
	C350.699615,340.964844 345.892120,335.092712 341.689087,329.073730 
	C338.718414,324.819611 337.392212,319.435486 335.186005,314.622681 
	C333.740417,311.469208 331.382935,311.274750 329.676422,314.226715 
	C327.768890,317.526489 325.708893,320.868866 324.583466,324.464447 
	C321.706970,333.654297 315.377838,340.001434 307.590820,346.155762 
z"/>
<path fill="#ECDBFF" opacity="1.000000" stroke="none" 
	d="
M303.881012,242.784409 
	C285.185425,237.512360 267.535339,229.764404 253.667252,215.578186 
	C248.412018,210.202408 244.230331,203.707001 239.973206,197.440735 
	C231.904099,185.563446 228.242920,171.736084 223.197372,158.517609 
	C222.560257,156.848450 219.737183,154.321609 219.146530,154.618515 
	C216.534790,155.931366 213.422455,157.666901 212.228378,160.101425 
	C209.273010,166.126953 207.269241,172.619247 204.608459,179.130493 
	C203.613998,174.742966 203.852921,170.538055 207.408279,166.821564 
	C208.736191,165.433456 209.273712,162.929367 209.447495,160.872940 
	C209.794357,156.768295 211.387268,153.959518 214.993530,151.632858 
	C219.610672,148.654007 221.226852,148.398331 223.567444,153.038666 
	C226.126617,158.112320 228.777222,163.286789 230.254822,168.725204 
	C232.569397,177.244110 236.354767,184.879471 240.527847,192.605362 
	C243.573029,198.243088 247.419922,203.086197 251.107315,208.131119 
	C257.149384,216.397598 265.392334,222.148529 274.106934,227.230148 
	C279.682159,230.481155 285.308563,233.680389 291.116211,236.479065 
	C293.412018,237.585403 296.436157,237.135086 298.805084,238.149307 
	C300.750305,238.982117 302.216675,240.933380 303.881012,242.784409 
z"/>
<path fill="#C795FF" opacity="1.000000" stroke="none" 
	d="
M358.896912,131.085846 
	C358.896912,131.085861 359.325623,131.261230 359.725769,131.599335 
	C365.039764,134.209213 369.849854,136.754089 374.898193,138.671875 
	C379.465179,140.406784 380.330994,142.274857 376.702789,145.607346 
	C374.098389,147.999512 370.808441,149.645294 367.824310,151.624023 
	C367.824310,151.624023 367.804047,151.745163 367.463745,151.761078 
	C366.108246,151.893585 365.093018,152.010193 363.739960,152.157059 
	C362.232025,153.414078 361.061951,154.640854 359.886688,155.894669 
	C359.881500,155.921722 359.926666,155.890289 359.543762,155.899109 
	C357.409058,156.233383 355.657318,156.558868 353.921265,156.550812 
	C354.026764,155.558090 354.116516,154.898880 354.495422,154.196350 
	C355.166565,154.075027 355.548523,153.997040 356.277313,153.880707 
	C359.076813,152.182327 361.529480,150.522324 364.288147,148.837616 
	C365.001831,148.775909 365.409515,148.738876 366.190430,148.722183 
	C370.763367,148.155579 373.556885,145.765259 375.707581,141.709869 
	C374.324615,141.336517 373.298828,141.059586 372.007751,140.641632 
	C371.159363,140.364700 370.576233,140.228760 369.728088,139.858704 
	C366.681305,138.383789 363.899506,137.143005 361.088074,135.920380 
	C361.058380,135.938538 361.089111,135.876114 360.955200,135.572357 
	C357.519501,133.211746 354.217773,131.154907 350.721985,129.031891 
	C350.527954,128.965714 350.137512,128.840622 350.043976,128.524017 
	C348.363556,126.761505 346.776703,125.315575 345.177002,123.858459 
	C345.164215,123.847267 345.147705,123.817551 345.109070,123.467705 
	C340.856140,114.950439 336.641785,106.783020 332.086395,97.954697 
	C331.598602,99.391983 331.318756,100.216568 330.984863,101.337700 
	C330.875366,102.032181 330.819946,102.430115 330.478455,102.990349 
	C329.787445,103.668503 329.290558,104.136177 328.991425,104.707397 
	C323.784393,114.650291 319.046051,124.921082 309.155304,131.405441 
	C307.247192,132.656387 305.558929,134.242676 303.553802,135.723999 
	C303.338318,135.773727 302.922729,135.925095 302.580017,136.007523 
	C299.763214,136.954254 297.289154,137.818558 294.957092,138.387665 
	C297.142548,136.179245 299.185944,134.266006 301.229340,132.352783 
	C301.625519,132.309067 302.021698,132.265366 302.916534,132.303558 
	C303.985443,131.982880 304.555725,131.580292 305.125977,131.177704 
	C305.125977,131.177704 305.145508,131.148544 305.485046,131.053452 
	C317.400665,124.057945 323.307953,113.003075 327.894135,100.571457 
	C327.980072,99.478806 328.001251,98.747276 328.022400,98.015739 
	C328.022400,98.015739 328.086212,98.092087 328.437347,97.982758 
	C329.992249,96.725891 331.196014,95.578369 332.671936,94.573547 
	C333.647644,95.138359 334.351227,95.560486 335.061310,96.369026 
	C337.578125,102.249741 340.088379,107.744041 342.598663,113.238342 
	C342.598663,113.238342 342.692047,113.698502 342.806702,114.263641 
	C344.240204,116.249954 345.559113,117.671135 346.877991,119.092323 
	C346.877991,119.092323 346.920288,119.013557 346.931702,119.408218 
	C349.581879,122.249939 352.220612,124.697006 354.859375,127.144073 
	C354.859375,127.144073 354.944275,127.134369 354.994507,127.471924 
	C356.328796,128.901596 357.612854,129.993729 358.896912,131.085846 
z"/>
<path fill="#C795FF" opacity="1.000000" stroke="none" 
	d="
M290.226044,137.395599 
	C290.909882,137.350540 291.593719,137.305466 292.621887,137.512161 
	C292.978638,138.132034 292.991058,138.500168 293.003113,139.215591 
	C292.983795,140.023529 292.964874,140.484177 292.655060,140.970535 
	C292.365234,141.976959 291.981110,143.563614 292.425873,143.846329 
	C298.000977,147.390366 303.769440,150.631256 309.330475,154.196075 
	C312.255005,156.070801 315.394928,158.011765 317.499573,160.666458 
	C320.467499,164.410049 322.565674,168.843185 325.017822,173.351959 
	C327.292847,178.190643 329.585693,182.658859 332.219666,187.055969 
	C333.020355,185.985992 333.479950,184.987122 334.167145,183.722610 
	C337.612640,177.317383 340.830505,171.177811 344.128235,164.855682 
	C344.208099,164.673126 344.303406,164.286209 344.568848,164.127045 
	C345.197144,163.252136 345.560028,162.536392 346.174500,161.628113 
	C347.681000,160.347641 348.935883,159.259720 350.526062,158.132172 
	C351.537720,158.031616 352.214020,157.970642 352.856659,158.246124 
	C352.143402,159.983551 351.463867,161.384521 350.493896,162.816849 
	C349.825714,162.940414 349.447968,163.032608 348.776062,163.285706 
	C346.290649,167.273041 344.099396,171.099487 341.908142,174.925934 
	C341.842163,175.338120 341.776184,175.750290 341.399445,176.639297 
	C339.722076,180.074722 338.355469,183.033340 336.988892,185.991959 
	C336.897339,186.386917 336.805817,186.781860 336.396423,187.640411 
	C332.066986,191.815704 330.912140,191.597000 328.727142,186.727066 
	C326.778656,182.384338 325.086304,177.896591 322.763092,173.763916 
	C321.467163,171.458603 319.115631,169.746643 317.080994,167.460480 
	C314.955200,164.765198 312.988251,162.376740 310.946533,159.650620 
	C306.547241,156.475433 302.270508,153.558899 297.847168,150.884781 
	C297.176880,150.479553 295.825134,151.201477 294.788605,151.402023 
	C294.477722,151.364639 294.166290,151.332703 293.509277,151.016266 
	C292.489014,150.022110 291.907837,149.183685 291.123962,148.634674 
	C283.973236,143.626358 283.864807,142.434677 290.226044,137.395599 
z"/>
<path fill="#DEC1FF" opacity="1.000000" stroke="none" 
	d="
M158.741608,232.264282 
	C155.771500,234.369873 152.578827,236.878067 148.961121,238.319290 
	C142.199707,241.012909 135.238113,243.241074 128.265091,245.349747 
	C125.124176,246.299591 122.819862,247.162140 122.887749,251.176956 
	C122.952103,254.982452 125.304855,255.540634 128.110931,256.623016 
	C138.420670,260.599762 148.603195,264.906342 158.995529,269.365967 
	C155.803711,268.632660 152.431824,267.676941 149.108093,266.575806 
	C148.200302,266.275055 147.505051,265.330505 146.597046,265.033142 
	C139.315475,262.648438 132.076080,260.084259 124.677727,258.127045 
	C120.641693,257.059326 119.928978,254.642273 119.961166,251.172272 
	C119.992035,247.844147 120.281288,245.226364 124.331017,243.927856 
	C133.589172,240.959320 143.128479,238.684311 151.617874,233.554626 
	C153.458206,232.442612 156.070511,232.608215 158.741608,232.264282 
z"/>
<path fill="#ECDBFF" opacity="1.000000" stroke="none" 
	d="
M234.630722,314.990814 
	C236.886765,310.378265 238.724503,305.495972 241.488007,301.210663 
	C246.854538,292.888885 253.159897,285.356628 261.628510,279.818542 
	C265.818878,277.078217 269.501221,273.571686 273.585144,270.651947 
	C274.949036,269.676849 276.846130,269.447510 278.778687,269.030518 
	C277.608795,270.931519 276.505463,273.320343 274.652679,274.319763 
	C264.955292,279.550537 256.493134,286.286041 249.757339,294.921204 
	C244.891449,301.159149 240.794083,307.996582 235.793579,314.785431 
	C235.032379,314.999756 234.831543,314.995300 234.630722,314.990814 
z"/>
<path fill="#E3CAFF" opacity="1.000000" stroke="none" 
	d="
M368.242828,151.722885 
	C370.808441,149.645294 374.098389,147.999512 376.702789,145.607346 
	C380.330994,142.274857 379.465179,140.406784 374.898193,138.671875 
	C369.849854,136.754089 365.039764,134.209213 359.947235,131.666962 
	C363.069885,132.408203 366.389343,133.365112 369.666260,134.450439 
	C371.941986,135.204163 374.207031,136.029205 376.387878,137.018494 
	C378.206635,137.843536 380.985016,138.635803 381.386810,140.012253 
	C381.985168,142.062317 381.494507,144.998276 380.348694,146.873978 
	C377.780029,151.078827 373.348511,152.015244 368.242828,151.722885 
z"/>
<path fill="#ECDBFF" opacity="1.000000" stroke="none" 
	d="
M203.587296,182.002045 
	C202.045227,186.450195 200.820831,191.410339 198.074753,195.294708 
	C193.183472,202.213425 187.371872,208.481491 181.639343,215.126587 
	C181.881119,213.719559 182.106339,211.965088 183.030640,210.736557 
	C187.690491,204.543030 192.604904,198.540649 197.241867,192.330704 
	C198.046677,191.252869 197.598862,189.278168 198.343552,188.108658 
	C199.730499,185.930466 201.568924,184.039749 203.587296,182.002045 
z"/>
<path fill="#E3CAFF" opacity="1.000000" stroke="none" 
	d="
M317.239807,167.767303 
	C319.115631,169.746643 321.467163,171.458603 322.763092,173.763916 
	C325.086304,177.896591 326.778656,182.384338 328.727142,186.727066 
	C330.912140,191.597000 332.066986,191.815704 336.354248,187.941742 
	C335.402008,190.077362 334.174164,192.375244 332.946289,194.673111 
	C331.277466,193.268356 329.020630,192.181412 328.055756,190.396179 
	C325.663177,185.969498 324.016296,181.146011 321.759674,176.637161 
	C320.526276,174.172760 318.662476,172.023849 317.074280,169.068237 
	C317.123718,168.191620 317.181763,167.979462 317.239807,167.767303 
z"/>
<path fill="#ECDBFF" opacity="1.000000" stroke="none" 
	d="
M306.375946,258.387939 
	C307.093292,257.765411 308.096680,257.153229 309.181519,256.920502 
	C312.361053,256.238373 314.022247,254.596085 314.062164,251.123260 
	C314.104706,247.419479 312.367218,245.640045 308.929871,245.051239 
	C308.129730,244.914185 307.365967,244.564972 306.317810,244.054871 
	C308.921265,243.976410 312.192017,243.373993 314.542206,244.574142 
	C316.569000,245.609177 318.643982,248.677887 318.681366,250.881699 
	C318.718719,253.083618 316.740204,256.131165 314.752930,257.336121 
	C312.607391,258.636993 309.427765,258.232361 306.375946,258.387939 
z"/>
<path fill="#E3CAFF" opacity="1.000000" stroke="none" 
	d="
M327.829376,100.932571 
	C323.307953,113.003075 317.400665,124.057945 305.500214,131.044662 
	C308.055359,127.689209 311.167633,124.412598 313.756195,120.764374 
	C317.075806,116.085884 322.150208,112.316544 322.451660,105.303268 
	C324.436157,103.538071 326.132751,102.235321 327.829376,100.932571 
z"/>
<path fill="#ECDBFF" opacity="1.000000" stroke="none" 
	d="
M187.219055,293.197510 
	C195.456955,299.988159 199.621460,309.688293 203.955612,319.654907 
	C202.457794,319.173859 199.898682,318.562317 199.637039,317.423096 
	C197.735413,309.142975 192.260300,303.061249 187.573242,296.463898 
	C187.072968,295.759705 187.272217,294.558502 187.219055,293.197510 
z"/>
<path fill="#ECDBFF" opacity="1.000000" stroke="none" 
	d="
M281.232513,269.081421 
	C281.079346,268.555359 281.258850,268.307587 281.984436,267.926422 
	C282.992645,267.178894 283.508789,266.603882 284.024933,266.028870 
	C286.909637,264.961273 289.797455,263.901978 292.678253,262.823944 
	C296.167542,261.518250 299.650879,260.196686 303.501831,258.850891 
	C304.044098,262.115723 302.350586,263.907776 299.185577,263.915955 
	C294.315552,263.928497 290.222961,265.441376 286.509308,268.667053 
	C285.451874,269.585541 283.209991,269.140381 281.232513,269.081421 
z"/>
<path fill="#ECDBFF" opacity="1.000000" stroke="none" 
	d="
M223.876236,344.961670 
	C223.012955,347.303101 222.575012,349.997864 221.071640,351.807556 
	C220.491226,352.506287 216.958740,351.789612 215.714554,350.669708 
	C213.567673,348.737305 208.931244,348.257385 210.934052,343.480896 
	C214.024384,346.173859 216.283844,349.946777 221.091888,346.761292 
	C221.148148,346.050720 221.165771,345.645142 221.200500,345.222778 
	C221.217636,345.205994 221.234161,345.161011 221.460144,345.099060 
	C222.416153,345.011932 223.146194,344.986786 223.876236,344.961670 
z"/>
<path fill="#ECDBFF" opacity="1.000000" stroke="none" 
	d="
M173.691498,221.671204 
	C170.830322,227.425385 164.870667,229.117477 159.501770,232.129730 
	C159.401474,231.040955 159.306854,229.345596 159.985947,228.937378 
	C164.372375,226.300659 168.927704,223.944901 173.691498,221.671204 
z"/>
<path fill="#ECDBFF" opacity="1.000000" stroke="none" 
	d="
M204.731659,324.330170 
	C207.217422,328.354675 209.493668,332.694672 212.142609,337.392517 
	C212.555344,338.171753 212.595428,338.593170 212.475281,339.225861 
	C212.184586,339.951721 212.054108,340.466278 211.609909,340.988403 
	C211.087189,341.005676 210.878204,341.015442 210.669205,341.025208 
	C208.787979,335.502380 202.221863,331.737762 204.731659,324.330170 
z"/>
<path fill="#F0E3FF" opacity="1.000000" stroke="none" 
	d="
M290.106171,151.800430 
	C285.801697,151.255936 280.144226,146.233444 280.299164,142.363358 
	C280.467072,138.168503 283.504333,136.604141 287.460632,137.066147 
	C282.254272,140.376831 281.813019,142.919418 285.783447,147.252029 
	C287.196350,148.793823 288.663696,150.285736 290.106171,151.800430 
z"/>
<path fill="#ECDBFF" opacity="1.000000" stroke="none" 
	d="
M223.024597,340.004150 
	C225.087753,336.076538 227.150925,332.148956 229.532410,328.083130 
	C231.777084,333.233398 230.045166,338.062164 224.219116,341.824493 
	C223.224045,341.996216 222.939926,342.007568 222.739975,341.686646 
	C222.890961,340.904266 222.957779,340.454224 223.024597,340.004150 
z"/>
<path fill="#E3CAFF" opacity="1.000000" stroke="none" 
	d="
M290.522034,151.813873 
	C288.663696,150.285736 287.196350,148.793823 285.783447,147.252029 
	C281.813019,142.919418 282.254272,140.376831 287.722046,137.235596 
	C288.492462,137.080353 288.993530,137.134018 289.860321,137.291641 
	C283.864807,142.434677 283.973236,143.626358 291.123962,148.634674 
	C291.907837,149.183685 292.489014,150.022110 293.274628,151.005936 
	C292.569336,151.466156 291.753632,151.646729 290.522034,151.813873 
z"/>
<path fill="#F3E9FF" opacity="1.000000" stroke="none" 
	d="
M364.077820,152.126816 
	C365.093018,152.010193 366.108246,151.893585 367.503479,151.807892 
	C367.071320,153.235107 366.588654,155.109299 365.385620,155.938705 
	C361.665802,158.503296 357.671509,160.669830 353.397705,162.998535 
	C353.011658,163.006149 352.966064,162.951263 353.120972,162.653168 
	C355.492798,160.200150 357.709747,158.045227 359.926666,155.890289 
	C359.926666,155.890289 359.881500,155.921722 360.257751,155.911911 
	C361.781982,154.643677 362.929901,153.385254 364.077820,152.126816 
z"/>
<path fill="#E3CAFF" opacity="1.000000" stroke="none" 
	d="
M295.078552,151.668686 
	C295.825134,151.201477 297.176880,150.479553 297.847168,150.884781 
	C302.270508,153.558899 306.547241,156.475433 310.609375,159.588181 
	C308.880249,159.262421 307.413574,158.661469 305.946869,158.060516 
	C302.420746,156.018784 298.894592,153.977066 295.078552,151.668686 
z"/>
<path fill="#E3CAFF" opacity="1.000000" stroke="none" 
	d="
M342.647095,112.833260 
	C340.088379,107.744041 337.578125,102.249741 335.307129,96.487572 
	C336.026611,96.482834 336.506775,96.745964 336.986969,97.009094 
	C337.479950,98.381195 337.959961,99.758110 338.468323,101.124481 
	C339.871063,104.894730 341.285614,108.660583 342.647095,112.833260 
z"/>
<path fill="#F0E3FF" opacity="1.000000" stroke="none" 
	d="
M306.037476,158.393585 
	C307.413574,158.661469 308.880249,159.262421 310.684143,159.925827 
	C312.988251,162.376740 314.955200,164.765198 317.080994,167.460480 
	C317.181763,167.979462 317.123718,168.191620 316.989014,168.725311 
	C313.317657,165.606781 309.722870,162.166702 306.037476,158.393585 
z"/>
<path fill="#E3CAFF" opacity="1.000000" stroke="none" 
	d="
M293.003479,138.868286 
	C292.991058,138.500168 292.978638,138.132034 292.963867,137.489594 
	C294.619232,134.312469 296.160431,131.237549 300.822113,132.263519 
	C299.185944,134.266006 297.142548,136.179245 294.657257,138.433777 
	C293.811432,138.806168 293.407440,138.837234 293.003479,138.868286 
z"/>
<path fill="#ECDBFF" opacity="1.000000" stroke="none" 
	d="
M231.134613,324.807922 
	C231.487961,322.497314 232.211899,320.163574 233.381012,317.448822 
	C234.476425,316.994843 235.126678,316.921875 235.776917,316.848907 
	C236.062820,320.414581 235.356445,323.446106 231.134613,324.807922 
z"/>
<path fill="#E3CAFF" opacity="1.000000" stroke="none" 
	d="
M342.212158,174.784302 
	C344.099396,171.099487 346.290649,167.273041 348.742188,163.639908 
	C348.701111,165.243210 348.399719,166.653214 348.098358,168.063202 
	C346.237640,170.256363 344.376923,172.449524 342.212158,174.784302 
z"/>
<path fill="#E3CAFF" opacity="1.000000" stroke="none" 
	d="
M337.299561,185.843750 
	C338.355469,183.033340 339.722076,180.074722 341.368866,176.950974 
	C342.920013,180.942123 340.504944,183.427551 337.299561,185.843750 
z"/>
<path fill="#ECDBFF" opacity="1.000000" stroke="none" 
	d="
M159.131851,270.237854 
	C161.148102,271.253021 163.148071,272.654724 165.231018,274.397644 
	C161.989838,275.262543 159.555832,274.445190 159.131851,270.237854 
z"/>
<path fill="#E3CAFF" opacity="1.000000" stroke="none" 
	d="
M354.740173,126.825424 
	C352.220612,124.697006 349.581879,122.249939 346.919342,119.447800 
	C349.470703,121.564079 352.045807,124.035423 354.740173,126.825424 
z"/>
<path fill="#DAB9FF" opacity="1.000000" stroke="none" 
	d="
M210.727890,341.344971 
	C210.878204,341.015442 211.087189,341.005676 211.862976,341.217773 
	C215.304276,343.315125 218.178772,345.190704 221.053268,347.066254 
	C216.283844,349.946777 214.024384,346.173859 211.115601,343.188721 
	C210.828720,342.528137 210.807648,342.096436 210.727890,341.344971 
z"/>
<path fill="#ECDBFF" opacity="1.000000" stroke="none" 
	d="
M167.058472,275.350220 
	C169.235245,276.505981 171.477081,277.998047 173.845215,279.796143 
	C169.716293,281.689392 168.860107,278.005310 167.058472,275.350220 
z"/>
<path fill="#F1E5FF" opacity="1.000000" stroke="none" 
	d="
M327.894135,100.571457 
	C326.132751,102.235321 324.436157,103.538071 322.448792,104.972076 
	C321.771729,101.229774 323.419220,98.831146 327.651917,98.027176 
	C328.001251,98.747276 327.980072,99.478806 327.894135,100.571457 
z"/>
<path fill="#F3E9FF" opacity="1.000000" stroke="none" 
	d="
M348.453064,168.023010 
	C348.399719,166.653214 348.701111,165.243210 349.036377,163.479004 
	C349.447968,163.032608 349.825714,162.940414 350.857086,162.873169 
	C351.995850,162.915848 352.480957,162.933563 352.966064,162.951263 
	C352.966064,162.951263 353.011658,163.006149 353.035828,163.033768 
	C351.642639,164.701859 350.225220,166.342331 348.453064,168.023010 
z"/>
<path fill="#ECDBFF" opacity="1.000000" stroke="none" 
	d="
M181.315186,287.140198 
	C183.227524,288.542114 185.117950,290.317078 187.109726,292.397858 
	C183.333817,293.145111 181.963989,290.727722 181.315186,287.140198 
z"/>
<path fill="#ECDBFF" opacity="1.000000" stroke="none" 
	d="
M180.841919,215.283539 
	C179.662308,217.111603 178.098083,218.875885 176.227020,220.765457 
	C175.996750,217.851685 176.681885,215.299515 180.841919,215.283539 
z"/>
<path fill="#ECDBFF" opacity="1.000000" stroke="none" 
	d="
M175.939545,281.476868 
	C177.622360,282.753082 179.317963,284.405731 181.120255,286.353943 
	C177.521545,287.192169 176.198578,285.114777 175.939545,281.476868 
z"/>
<path fill="#F1E5FF" opacity="1.000000" stroke="none" 
	d="
M336.993652,96.650925 
	C336.506775,96.745964 336.026611,96.482834 335.300598,96.101158 
	C334.351227,95.560486 333.647644,95.138359 332.766541,94.398102 
	C332.797516,93.692459 333.006104,93.304962 333.214691,92.917465 
	C336.719635,91.526802 336.811737,93.963898 336.993652,96.650925 
z"/>
<path fill="#E3CAFF" opacity="1.000000" stroke="none" 
	d="
M346.903259,118.730057 
	C345.559113,117.671135 344.240204,116.249954 342.884338,114.485199 
	C344.207733,115.550346 345.568146,116.959068 346.903259,118.730057 
z"/>
<path fill="#E3CAFF" opacity="1.000000" stroke="none" 
	d="
M358.905457,130.710068 
	C357.612854,129.993729 356.328796,128.901596 354.958557,127.495071 
	C356.219574,128.231888 357.566803,129.283081 358.905457,130.710068 
z"/>
<path fill="#E3CAFF" opacity="1.000000" stroke="none" 
	d="
M332.840057,92.921654 
	C333.006104,93.304962 332.797516,93.692459 332.494385,94.255402 
	C331.196014,95.578369 329.992249,96.725891 328.485413,97.995659 
	C328.123871,97.648361 328.065460,97.178825 328.195129,96.143250 
	C328.583740,95.046936 328.784210,94.516655 328.984680,93.986374 
	C330.144928,93.632866 331.305176,93.279350 332.840057,92.921654 
z"/>
<path fill="#C795FF" opacity="1.000000" stroke="none" 
	d="
M222.655823,342.018921 
	C222.939926,342.007568 223.224045,341.996216 223.936859,341.984558 
	C224.223999,342.726227 224.082428,343.468201 223.908554,344.585938 
	C223.146194,344.986786 222.416153,345.011932 221.406982,344.772095 
	C221.637177,343.677734 222.146500,342.848328 222.655823,342.018921 
z"/>
<path fill="#DABAFF" opacity="1.000000" stroke="none" 
	d="
M235.805008,316.543121 
	C235.126678,316.921875 234.476425,316.994843 233.501434,317.103424 
	C233.496796,316.498352 233.816895,315.857666 234.383850,315.103882 
	C234.831543,314.995300 235.032379,314.999756 235.533066,315.005249 
	C235.832977,315.416626 235.833038,315.826965 235.805008,316.543121 
z"/>
<path fill="#F1E5FF" opacity="1.000000" stroke="none" 
	d="
M328.741516,94.049026 
	C328.784210,94.516655 328.583740,95.046936 328.189270,95.788544 
	C328.163025,95.370483 328.330719,94.741081 328.741516,94.049026 
z"/>
<path fill="#E3CAFF" opacity="1.000000" stroke="none" 
	d="
M304.819214,131.183014 
	C304.555725,131.580292 303.985443,131.982880 303.212250,132.259735 
	C303.510345,131.818771 304.011414,131.503555 304.819214,131.183014 
z"/>
<path fill="#9437FF" opacity="1.000000" stroke="none" 
	d="
M221.254364,162.951447 
	C221.280945,163.343506 221.307541,163.735565 221.237289,164.876358 
	C221.473007,168.207993 220.866028,172.015350 222.322769,173.133072 
	C225.983398,175.941757 225.781769,179.674240 226.612000,183.291702 
	C227.014725,185.046509 227.372406,186.909424 228.245911,188.440811 
	C231.353271,193.888733 234.503067,199.330719 238.016785,204.517517 
	C239.075592,206.080475 241.369614,206.806656 243.097809,207.916153 
	C243.097809,207.916153 243.257828,208.292267 243.230301,208.877502 
	C244.563446,210.884232 245.924118,212.305725 247.284790,213.727219 
	C247.284790,213.727219 247.700851,213.762436 247.937042,214.191193 
	C248.767502,217.930603 250.297272,220.186935 254.101425,219.879929 
	C254.101425,219.879929 254.032730,219.967957 254.062164,220.311768 
	C254.436310,223.749146 256.143372,225.127121 259.245483,224.748367 
	C259.536957,224.890503 259.789703,225.083374 260.092163,225.910187 
	C261.238037,227.759277 262.066010,229.391739 263.395081,230.223740 
	C267.746277,232.947662 272.762817,234.813843 276.603790,238.088577 
	C280.252991,241.199829 283.816376,242.360947 288.296234,241.665344 
	C288.675446,241.668182 289.054626,241.671005 289.874329,242.031158 
	C292.747345,247.187164 297.617554,246.774139 301.818634,247.967957 
	C303.342316,248.400970 304.531494,250.011063 305.873322,251.084076 
	C304.475861,252.107849 303.210815,253.673492 301.656036,254.053436 
	C297.049072,255.179260 291.914978,255.090820 289.867798,260.687256 
	C289.448120,260.739105 289.028412,260.790955 287.976562,260.674683 
	C278.932526,258.770752 274.386200,266.634766 267.429932,268.600342 
	C265.671356,269.097229 264.062744,270.626617 262.743347,272.020569 
	C261.646179,273.179749 261.074493,274.836304 260.270081,276.272583 
	C259.800415,276.577332 259.330780,276.882080 258.208099,277.224304 
	C256.410492,278.875305 255.265961,280.488861 254.121414,282.102417 
	C254.121414,282.102417 254.035614,282.031372 253.689697,282.061066 
	C249.450592,282.237579 248.520737,284.958130 248.103683,288.124084 
	C248.103683,288.124084 247.701645,288.237701 247.116074,288.241394 
	C245.461502,289.928986 244.392502,291.612854 243.323502,293.296722 
	C243.323502,293.296722 243.239639,293.693573 242.786621,293.878113 
	C241.419098,294.403015 240.059280,294.472992 239.662048,295.127319 
	C236.977875,299.548859 234.482712,304.085846 231.964203,308.606537 
	C231.493484,309.451477 231.446640,310.819397 230.773270,311.217865 
	C226.490753,313.752167 226.813705,318.153931 226.014404,322.135468 
	C225.729813,323.553162 225.637619,325.591705 224.708069,326.198395 
	C220.345673,329.045532 220.764053,333.086731 221.314362,337.282990 
	C221.315765,337.668396 221.317184,338.053772 220.907074,338.706512 
	C218.253189,337.986633 216.010834,336.999420 213.768478,336.012207 
	C213.741898,335.627319 213.715317,335.242432 213.771027,334.116028 
	C214.838242,324.445099 207.416580,318.257843 206.176987,309.959442 
	C205.776337,307.277374 203.581116,304.702271 201.747330,302.452820 
	C200.552902,300.987671 198.529266,300.198456 196.877106,299.106415 
	C196.877106,299.106415 196.750427,298.698883 196.804672,298.088806 
	C194.978653,294.522156 193.253296,291.452393 191.190643,288.629059 
	C183.358154,277.908203 173.184189,270.150452 160.922531,265.088898 
	C160.028870,264.720001 158.994705,264.244476 158.470459,263.503815 
	C155.964523,259.963654 152.515244,259.655823 148.697922,260.341675 
	C148.318130,260.354095 147.938339,260.366516 147.144806,259.999512 
	C144.578339,258.084564 142.582718,256.207581 140.223022,255.121979 
	C138.342865,254.256958 135.923782,254.630615 133.923264,253.937119 
	C132.499573,253.443604 131.373932,252.090286 130.115265,251.120697 
	C131.293640,250.076263 132.316910,248.669083 133.690704,248.081589 
	C135.316574,247.386322 137.236496,247.227844 139.043823,247.138931 
	C142.875168,246.950455 145.825287,245.655289 146.987152,241.670486 
	C147.367432,241.652374 147.747696,241.634247 148.844513,241.725372 
	C151.941971,241.322861 154.440369,241.100983 156.663483,240.199890 
	C158.208069,239.573822 159.235825,237.771667 160.734756,236.915756 
	C165.566513,234.156815 171.115845,232.309860 175.274582,228.793747 
	C182.376877,222.788910 188.733978,215.879303 195.153091,209.111633 
	C196.294388,207.908340 196.218369,205.550430 196.704453,203.725677 
	C196.704453,203.725677 196.750320,203.301376 197.195770,203.101318 
	C199.011444,201.894241 201.135513,201.163223 201.622498,199.832901 
	C203.833817,193.792099 209.542496,189.210724 209.077667,182.056931 
	C209.041611,181.501877 209.503860,180.735931 209.969330,180.354721 
	C214.097702,176.973709 214.311005,172.477997 213.694809,167.721268 
	C213.704727,167.331680 213.714630,166.942108 214.118042,166.199829 
	C216.759155,164.881912 219.006760,163.916672 221.254364,162.951447 
z"/>
<path fill="#A75AFF" opacity="1.000000" stroke="none" 
	d="
M148.889297,260.613831 
	C152.515244,259.655823 155.964523,259.963654 158.470459,263.503815 
	C158.994705,264.244476 160.028870,264.720001 160.922531,265.088898 
	C173.184189,270.150452 183.358154,277.908203 191.190643,288.629059 
	C193.253296,291.452393 194.978653,294.522156 196.781708,297.876678 
	C191.751480,292.981079 187.020752,287.455322 181.791306,282.450684 
	C174.658569,275.624573 166.892960,269.628021 157.535843,265.918915 
	C154.525452,264.725616 151.888489,262.590332 148.889297,260.613831 
z"/>
<path fill="#A75AFF" opacity="1.000000" stroke="none" 
	d="
M196.426834,203.895142 
	C196.218369,205.550430 196.294388,207.908340 195.153091,209.111633 
	C188.733978,215.879303 182.376877,222.788910 175.274582,228.793747 
	C171.115845,232.309860 165.566513,234.156815 160.734756,236.915756 
	C159.235825,237.771667 158.208069,239.573822 156.663483,240.199890 
	C154.440369,241.100983 151.941971,241.322861 149.129486,241.746399 
	C153.431671,239.100922 158.503113,237.010452 162.825012,233.883881 
	C170.524155,228.314178 177.967682,222.344406 185.128723,216.095718 
	C189.200974,212.542328 192.501282,208.104294 196.426834,203.895142 
z"/>
<path fill="#A75AFF" opacity="1.000000" stroke="none" 
	d="
M243.010437,207.583588 
	C241.369614,206.806656 239.075592,206.080475 238.016785,204.517517 
	C234.503067,199.330719 231.353271,193.888733 228.245911,188.440811 
	C227.372406,186.909424 227.014725,185.046509 226.612000,183.291702 
	C225.781769,179.674240 225.983398,175.941757 222.322769,173.133072 
	C220.866028,172.015350 221.473007,168.207993 221.227280,165.171021 
	C223.501480,169.406250 225.682632,174.098465 227.877777,178.784119 
	C230.705322,184.819595 233.386063,190.931198 236.436478,196.852112 
	C238.301239,200.471664 240.741364,203.794769 243.010437,207.583588 
z"/>
<path fill="#A75AFF" opacity="1.000000" stroke="none" 
	d="
M221.589722,337.082306 
	C220.764053,333.086731 220.345673,329.045532 224.708069,326.198395 
	C225.637619,325.591705 225.729813,323.553162 226.014404,322.135468 
	C226.813705,318.153931 226.490753,313.752167 230.773270,311.217865 
	C231.446640,310.819397 231.493484,309.451477 231.964203,308.606537 
	C234.482712,304.085846 236.977875,299.548859 239.662048,295.127319 
	C240.059280,294.472992 241.419098,294.403015 242.707855,294.065002 
	C233.119858,306.906647 229.163132,322.722046 221.589722,337.082306 
z"/>
<path fill="#A75AFF" opacity="1.000000" stroke="none" 
	d="
M146.700562,241.562881 
	C145.825287,245.655289 142.875168,246.950455 139.043823,247.138931 
	C137.236496,247.227844 135.316574,247.386322 133.690704,248.081589 
	C132.316910,248.669083 131.293640,250.076263 130.115265,251.120697 
	C131.373932,252.090286 132.499573,253.443604 133.923264,253.937119 
	C135.923782,254.630615 138.342865,254.256958 140.223022,255.121979 
	C142.582718,256.207581 144.578339,258.084564 146.860672,259.974731 
	C145.719269,260.172943 144.382523,260.216461 143.189056,259.824097 
	C138.847916,258.396973 134.442032,257.071869 130.297485,255.187164 
	C128.577347,254.404968 126.637268,252.448425 126.350739,250.761993 
	C126.163773,249.661499 128.533768,247.471527 130.171936,246.836548 
	C135.483261,244.777832 140.985352,243.211334 146.700562,241.562881 
z"/>
<path fill="#A75AFF" opacity="1.000000" stroke="none" 
	d="
M290.246735,260.749756 
	C291.914978,255.090820 297.049072,255.179260 301.656036,254.053436 
	C303.210815,253.673492 304.475861,252.107849 305.873322,251.084076 
	C304.531494,250.011063 303.342316,248.400970 301.818634,247.967957 
	C297.617554,246.774139 292.747345,247.187164 290.157501,242.059311 
	C291.410187,241.865219 292.916412,241.728180 294.212158,242.186386 
	C298.090485,243.557831 302.008026,244.922989 305.661346,246.780212 
	C307.391205,247.659561 309.356873,249.499619 309.683136,251.198730 
	C309.889801,252.275101 307.514557,254.458588 305.874969,255.163940 
	C300.902252,257.303253 295.723907,258.964630 290.246735,260.749756 
z"/>
<path fill="#A75AFF" opacity="1.000000" stroke="none" 
	d="
M196.961136,299.442902 
	C198.529266,300.198456 200.552902,300.987671 201.747330,302.452820 
	C203.581116,304.702271 205.776337,307.277374 206.176987,309.959442 
	C207.416580,318.257843 214.838242,324.445099 213.774185,333.826660 
	C211.692123,330.341156 209.610031,326.441406 207.703339,322.457703 
	C204.097382,314.923737 200.592209,307.341553 196.961136,299.442902 
z"/>
<path fill="#A75AFF" opacity="1.000000" stroke="none" 
	d="
M213.414993,167.923309 
	C214.311005,172.477997 214.097702,176.973709 209.969330,180.354721 
	C209.503860,180.735931 209.041611,181.501877 209.077667,182.056931 
	C209.542496,189.210724 203.833817,193.792099 201.622498,199.832901 
	C201.135513,201.163223 199.011444,201.894241 197.259094,202.897522 
	C202.296356,191.304321 207.715759,179.714844 213.414993,167.923309 
z"/>
<path fill="#A75AFF" opacity="1.000000" stroke="none" 
	d="
M288.094055,241.391876 
	C283.816376,242.360947 280.252991,241.199829 276.603790,238.088577 
	C272.762817,234.813843 267.746277,232.947662 263.395081,230.223740 
	C262.066010,229.391739 261.238037,227.759277 260.233002,226.104065 
	C269.487579,230.849274 278.689758,235.983826 288.094055,241.391876 
z"/>
<path fill="#A75AFF" opacity="1.000000" stroke="none" 
	d="
M260.584839,276.145447 
	C261.074493,274.836304 261.646179,273.179749 262.743347,272.020569 
	C264.062744,270.626617 265.671356,269.097229 267.429932,268.600342 
	C274.386200,266.634766 278.932526,258.770752 287.660339,260.699341 
	C278.950745,265.934174 269.925171,270.976257 260.584839,276.145447 
z"/>
<path fill="#A75AFF" opacity="1.000000" stroke="none" 
	d="
M213.549057,336.194885 
	C216.010834,336.999420 218.253189,337.986633 220.883820,338.994812 
	C221.697662,339.284912 222.123215,339.554047 222.786682,339.913666 
	C222.957779,340.454224 222.890961,340.904266 222.739990,341.686646 
	C222.146500,342.848328 221.637177,343.677734 221.181000,344.834045 
	C221.234161,345.161011 221.217636,345.205994 220.857513,345.081390 
	C217.876755,342.976044 215.256119,340.995331 212.635498,339.014587 
	C212.595428,338.593170 212.555344,338.171753 212.483887,337.432068 
	C212.744888,336.868378 213.037262,336.622955 213.549057,336.194885 
z"/>
<path fill="#A75AFF" opacity="1.000000" stroke="none" 
	d="
M221.402557,162.676971 
	C219.006760,163.916672 216.759155,164.881912 214.144867,165.908661 
	C212.407761,160.669403 216.915710,159.755096 220.461731,156.857895 
	C220.919174,159.186844 221.234970,160.794678 221.402557,162.676971 
z"/>
<path fill="#A75AFF" opacity="1.000000" stroke="none" 
	d="
M253.988708,219.573212 
	C250.297272,220.186935 248.767502,217.930603 248.137924,214.248077 
	C250.027069,215.672989 251.951538,217.469742 253.988708,219.573212 
z"/>
<path fill="#A75AFF" opacity="1.000000" stroke="none" 
	d="
M248.414993,288.015076 
	C248.520737,284.958130 249.450592,282.237579 253.722900,282.105774 
	C252.310104,284.049164 250.518204,285.977600 248.414993,288.015076 
z"/>
<path fill="#A75AFF" opacity="1.000000" stroke="none" 
	d="
M259.088867,224.468155 
	C256.143372,225.127121 254.436310,223.749146 254.105865,220.277008 
	C255.724167,221.328262 257.328217,222.758102 259.088867,224.468155 
z"/>
<path fill="#A75AFF" opacity="1.000000" stroke="none" 
	d="
M243.597473,293.132507 
	C244.392502,291.612854 245.461502,289.928986 246.907898,288.258667 
	C246.147339,289.837555 245.009399,291.402924 243.597473,293.132507 
z"/>
<path fill="#A75AFF" opacity="1.000000" stroke="none" 
	d="
M254.426758,281.993774 
	C255.265961,280.488861 256.410492,278.875305 257.929321,277.279175 
	C257.113098,278.826111 255.922592,280.355591 254.426758,281.993774 
z"/>
<path fill="#A75AFF" opacity="1.000000" stroke="none" 
	d="
M247.159988,213.425400 
	C245.924118,212.305725 244.563446,210.884232 243.271484,209.077682 
	C244.571869,210.169601 245.803528,211.646591 247.159988,213.425400 
z"/>
<path fill="#DABAFF" opacity="1.000000" stroke="none" 
	d="
M283.734406,266.097900 
	C283.508789,266.603882 282.992645,267.178894 282.167786,267.785278 
	C282.387329,267.266693 282.915588,266.716797 283.734406,266.097900 
z"/>
<path fill="#B472FF" opacity="1.000000" stroke="none" 
	d="
M307.908325,345.982361 
	C315.377838,340.001434 321.706970,333.654297 324.583466,324.464447 
	C325.708893,320.868866 327.768890,317.526489 329.676422,314.226715 
	C331.382935,311.274750 333.740417,311.469208 335.186005,314.622681 
	C337.392212,319.435486 338.718414,324.819611 341.689087,329.073730 
	C345.892120,335.092712 350.699615,340.964844 356.297546,345.645386 
	C360.596405,349.239685 366.639923,350.674744 371.662933,353.504333 
	C374.407104,355.050140 376.642944,357.498352 379.861755,360.163696 
	C377.407684,361.455292 376.222076,362.380371 374.884949,362.736389 
	C361.696899,366.247620 350.867798,373.233978 343.638336,384.907684 
	C340.354797,390.209839 338.240997,396.227905 335.438416,401.842224 
	C334.701538,403.318390 333.375092,404.500244 332.319397,405.817261 
	C331.294220,404.607483 330.011230,403.533722 329.288910,402.164276 
	C326.289978,396.478516 323.584198,390.636902 320.540741,384.976196 
	C315.408264,375.430084 306.481171,370.191101 297.368195,365.326904 
	C294.926361,364.023590 292.008759,363.608093 289.305267,362.799377 
	C285.675140,361.713562 285.147339,359.650024 287.711395,357.005737 
	C289.071991,355.602570 290.707855,354.339081 292.443787,353.451111 
	C297.431580,350.899658 302.533661,348.571594 307.908325,345.982361 
M305.056610,352.846527 
	C300.636963,354.224701 295.314514,354.228912 293.848389,360.234680 
	C313.727905,366.558960 325.879791,380.385895 331.632935,398.739136 
	C336.300629,390.993561 340.170441,381.806000 346.494690,374.850006 
	C352.908081,367.795990 361.474701,362.486298 371.502563,359.629150 
	C365.707855,355.433197 359.439545,352.273438 353.947906,348.093384 
	C348.756165,344.141510 343.563904,339.687347 339.877594,334.403625 
	C336.270355,329.233185 334.563629,322.736816 332.234283,317.314880 
	C330.082275,322.210846 327.660675,327.782990 325.169434,333.323822 
	C324.769775,334.212708 324.177826,335.087067 323.473083,335.755554 
	C317.576630,341.348724 311.633057,346.892242 305.056610,352.846527 
z"/>
<path fill="#9639FF" opacity="1.000000" stroke="none" 
	d="
M325.035706,172.981506 
	C322.565674,168.843185 320.467499,164.410049 317.499573,160.666458 
	C315.394928,158.011765 312.255005,156.070801 309.330475,154.196075 
	C303.769440,150.631256 298.000977,147.390366 292.425873,143.846329 
	C291.981110,143.563614 292.365234,141.976959 293.071411,141.005005 
	C297.851501,141.159119 301.463379,140.476105 302.922729,135.925095 
	C302.922729,135.925095 303.338318,135.773727 303.937012,135.748505 
	C311.382935,134.793594 315.658783,129.832443 319.667267,125.130104 
	C323.115112,121.085411 325.549988,116.107437 328.024658,111.330696 
	C329.375549,108.723183 329.878937,105.676613 330.764526,102.828049 
	C330.819946,102.430115 330.875366,102.032181 331.312042,101.476532 
	C332.088104,101.821831 332.622803,102.267517 332.856079,102.836739 
	C335.179535,108.506233 337.198914,114.320717 339.887543,119.808441 
	C340.754974,121.578880 343.345459,122.505119 345.147705,123.817551 
	C345.147705,123.817551 345.164215,123.847267 345.145142,124.236420 
	C345.379456,127.715431 347.147888,129.003998 350.137512,128.840622 
	C350.137512,128.840622 350.527954,128.965714 350.756165,129.390137 
	C352.443634,135.017380 356.888702,135.242828 361.089111,135.876114 
	C361.089111,135.876114 361.058380,135.938538 361.121765,136.279297 
	C363.063507,140.460129 366.062500,141.457962 369.993134,140.092834 
	C370.576233,140.228760 371.159363,140.364700 371.858154,140.973953 
	C369.921661,143.865479 367.869415,146.283661 365.817200,148.701843 
	C365.409515,148.738876 365.001831,148.775909 364.002625,148.655670 
	C359.131989,147.841125 356.605682,149.602814 355.930481,153.919067 
	C355.548523,153.997040 355.166565,154.075027 354.110657,154.147583 
	C352.354706,155.485352 351.272736,156.828568 350.190765,158.171783 
	C348.935883,159.259720 347.681000,160.347641 345.933716,161.527374 
	C345.062042,162.508179 344.682709,163.397202 344.303406,164.286209 
	C344.303406,164.286209 344.208099,164.673126 343.751526,164.860870 
	C338.417877,167.055588 332.526855,178.981674 333.939514,183.988251 
	C333.479950,184.987122 333.020355,185.985992 332.253479,186.625397 
	C332.367432,180.420395 329.985352,176.033142 325.035706,172.981506 
z"/>
<path fill="#AD63FF" opacity="1.000000" stroke="none" 
	d="
M330.478424,102.990349 
	C329.878937,105.676613 329.375549,108.723183 328.024658,111.330696 
	C325.549988,116.107437 323.115112,121.085411 319.667267,125.130104 
	C315.658783,129.832443 311.382935,134.793594 304.152527,135.698776 
	C305.558929,134.242676 307.247192,132.656387 309.155304,131.405441 
	C319.046051,124.921082 323.784393,114.650291 328.991425,104.707397 
	C329.290558,104.136177 329.787445,103.668503 330.478424,102.990349 
z"/>
<path fill="#AD63FF" opacity="1.000000" stroke="none" 
	d="
M345.109070,123.467705 
	C343.345459,122.505119 340.754974,121.578880 339.887543,119.808441 
	C337.198914,114.320717 335.179535,108.506233 332.856079,102.836739 
	C332.622803,102.267517 332.088104,101.821831 331.366089,101.179977 
	C331.318756,100.216568 331.598602,99.391983 332.086395,97.954697 
	C336.641785,106.783020 340.856140,114.950439 345.109070,123.467705 
z"/>
<path fill="#AD63FF" opacity="1.000000" stroke="none" 
	d="
M366.190430,148.722198 
	C367.869415,146.283661 369.921661,143.865479 372.123444,141.114960 
	C373.298828,141.059586 374.324615,141.336517 375.707581,141.709869 
	C373.556885,145.765259 370.763367,148.155579 366.190430,148.722198 
z"/>
<path fill="#AD63FF" opacity="1.000000" stroke="none" 
	d="
M360.955200,135.572357 
	C356.888702,135.242828 352.443634,135.017380 350.950195,129.456299 
	C354.217773,131.154907 357.519501,133.211746 360.955200,135.572357 
z"/>
<path fill="#AD63FF" opacity="1.000000" stroke="none" 
	d="
M356.277313,153.880707 
	C356.605682,149.602814 359.131989,147.841125 363.696655,148.680344 
	C361.529480,150.522324 359.076813,152.182327 356.277313,153.880707 
z"/>
<path fill="#AD63FF" opacity="1.000000" stroke="none" 
	d="
M302.580017,136.007523 
	C301.463379,140.476105 297.851501,141.159119 293.362305,140.979279 
	C292.964874,140.484177 292.983795,140.023529 293.003113,139.215591 
	C293.407440,138.837234 293.811432,138.806168 294.515259,138.728973 
	C297.289154,137.818558 299.763214,136.954254 302.580017,136.007523 
z"/>
<path fill="#AD63FF" opacity="1.000000" stroke="none" 
	d="
M369.728088,139.858704 
	C366.062500,141.457962 363.063507,140.460129 361.151428,136.261139 
	C363.899506,137.143005 366.681305,138.383789 369.728088,139.858704 
z"/>
<path fill="#E3CAFF" opacity="1.000000" stroke="none" 
	d="
M353.120972,162.653168 
	C352.480957,162.933563 351.995850,162.915848 351.147522,162.841827 
	C351.463867,161.384521 352.143402,159.983551 353.049561,158.099548 
	C353.519775,157.401550 353.729584,157.157486 353.905548,156.884338 
	C355.657318,156.558868 357.409058,156.233383 359.543762,155.899109 
	C357.709747,158.045227 355.492798,160.200150 353.120972,162.653168 
z"/>
<path fill="#AD63FF" opacity="1.000000" stroke="none" 
	d="
M350.043976,128.524017 
	C347.147888,129.003998 345.379456,127.715431 345.157959,124.247620 
	C346.776703,125.315575 348.363556,126.761505 350.043976,128.524017 
z"/>
<path fill="#AD63FF" opacity="1.000000" stroke="none" 
	d="
M353.921265,156.550812 
	C353.729584,157.157486 353.519775,157.401550 353.083252,157.763092 
	C352.214020,157.970642 351.537720,158.031616 350.526062,158.132172 
	C351.272736,156.828568 352.354706,155.485352 353.821472,154.190918 
	C354.116516,154.898880 354.026764,155.558090 353.921265,156.550812 
z"/>
<path fill="#E3CAFF" opacity="1.000000" stroke="none" 
	d="
M363.739960,152.157059 
	C362.929901,153.385254 361.781982,154.643677 360.262939,155.884857 
	C361.061951,154.640854 362.232025,153.414078 363.739960,152.157059 
z"/>
<path fill="#A85AFF" opacity="1.000000" stroke="none" 
	d="
M334.167145,183.722610 
	C332.526855,178.981674 338.417877,167.055588 343.671661,165.043427 
	C340.830505,171.177811 337.612640,177.317383 334.167145,183.722610 
z"/>
<path fill="#A85AFF" opacity="1.000000" stroke="none" 
	d="
M325.017822,173.351959 
	C329.985352,176.033142 332.367432,180.420395 331.912354,186.696503 
	C329.585693,182.658859 327.292847,178.190643 325.017822,173.351959 
z"/>
<path fill="#A85AFF" opacity="1.000000" stroke="none" 
	d="
M344.568848,164.127045 
	C344.682709,163.397202 345.062042,162.508179 345.682129,161.719910 
	C345.560028,162.536392 345.197144,163.252136 344.568848,164.127045 
z"/>
<path fill="#C795FF" opacity="1.000000" stroke="none" 
	d="
M212.475281,339.225861 
	C215.256119,340.995331 217.876755,342.976044 220.840378,345.098175 
	C221.165771,345.645142 221.148148,346.050720 221.091888,346.761292 
	C218.178772,345.190704 215.304276,343.315125 212.176712,341.210205 
	C212.054108,340.466278 212.184586,339.951721 212.475281,339.225861 
z"/>
<path fill="#9538FF" opacity="1.000000" stroke="none" 
	d="
M305.380127,352.648621 
	C311.633057,346.892242 317.576630,341.348724 323.473083,335.755554 
	C324.177826,335.087067 324.769775,334.212708 325.169434,333.323822 
	C327.660675,327.782990 330.082275,322.210846 332.234283,317.314880 
	C334.563629,322.736816 336.270355,329.233185 339.877594,334.403625 
	C343.563904,339.687347 348.756165,344.141510 353.947906,348.093384 
	C359.439545,352.273438 365.707855,355.433197 371.502563,359.629150 
	C361.474701,362.486298 352.908081,367.795990 346.494690,374.850006 
	C340.170441,381.806000 336.300629,390.993561 331.632935,398.739136 
	C325.879791,380.385895 313.727905,366.558960 293.848389,360.234680 
	C295.314514,354.228912 300.636963,354.224701 305.380127,352.648621 
z"/>
</svg>